<?xml version="1.0" encoding="UTF-8"?>
<svg id="Artwork" xmlns="http://www.w3.org/2000/svg" viewBox="0 0 1191.56 81.29">
  <defs>
    <style>
      .cls-1 {
        fill: #f5f0e8;
      }
    </style>
  </defs>
  <g>
    <path class="cls-1" d="M80.93,44.06c-1,.07-2.93.19-4.71.19h-.87c-3.41,0-11.38-.01-13.28.22-1.88.23-11.03.31-12.07.31-.47,0-.85.36-.9.82l-.19,2.05c-.03.25.06.5.23.69.17.19.41.3.67.3.95,0,3.46.1,6.26.74,3.44.79,3.93,4.47,4.14,6.04.23,1.73.1,10.72-2.11,14.06-2.23,3.36-8.69,5.98-12.97,6.09-4.3.11-10.29-.52-14.25-2.59-3.76-1.96-7.61-4.55-10.31-10.13-2.64-5.47-3.89-10.92-4.02-17.67-.12-5.71.12-14.06,1.95-21.44,1.85-7.48,4.25-11.7,7.8-13.69,4.33-2.43,10.13-5.16,16.51-4.74,7.05.49,13.31,4.08,16.42,6.18,2.9,1.96,4.83,5.86,5.75,7.73.22.44.38.78.51.99.36.6,1.17,3.51,2.13,7.58.11.46.52.79,1,.79h1.49c.28,0,.54-.11.73-.31.19-.2.3-.46.29-.73,0-.13,0-.26-.02-.41-.01-.18,0-1.63.03-3.3.04-3.11.09-7.38.05-9.85-.06-3.34-.53-7.78-.68-9.06-.05-.42-.42-.75-.83-.72l-2.02.07h0c-.51.02-.94.42-.99.93-.05.57-.18,1.74-.42,3.15-.2,1.23-.5,2.32-.72,3.02-.02.05-.05.07-.08.08-.02,0-.07.01-.11-.03-3.14-2.93-7.51-5.61-10.24-6.87-2.53-1.16-8-3.04-16.18-2.57-7.55.44-12.05,2.15-15.79,3.93-3.88,1.85-10.76,8.19-13.62,12.57-2.85,4.35-6.03,12.58-6.27,20.38-.25,7.77,1.99,16.86,4.22,21.46,2.16,4.46,5.84,10.11,15.19,14.26,8.84,3.92,12.1,4.2,17.03,4.62l.55.05c.69.06,1.41.09,2.15.09,5.06,0,10.85-1.35,14.05-2.88,3.04-1.45,6.76-2.27,9.74-2.93.56-.13,1.1-.24,1.59-.36,2.82-.65,4.4.52,4.47.57l.3.23.98-1.04-.05-.22s-.5-2.2-.85-6.01c-.37-4.04-.45-11.69,0-14.53.42-2.69,1.81-3.09,4.38-3.84,1.78-.52,3.72-.42,4.72-.31.26.03.53-.08.71-.27.18-.2.25-.48.19-.74l-.45-1.98c-.09-.6-.64-1.02-1.23-.99ZM49.52,45.65s0,0,0,0h0,0ZM49.82,48.23h0s0,0,0,0Z"/>
    <path class="cls-1" d="M171.43,52.42l-1.89.38c-.62.12-1.09.6-1.22,1.22-.84,4.15-3.11,10.03-6.29,13.8-2.37,2.82-5.75,4.52-10.04,5.06-2.49.31-13.92.5-16.59-.84-2.58-1.29-2.88-6.15-2.83-11.21.03-2.92-.12-10-.46-21.04v-.38c-.01-.08.03-.13.05-.15.02-.02.08-.05.15-.06.92.04,2.64.03,4.46.01,1.73-.01,3.52-.03,4.66,0l.82.02c2.57.05,5.24.09,6.69,2.93,1.27,2.47,1.07,5.75.93,7.04-.03.31.07.63.29.86.22.23.54.38.84.33l1.23-.06c.63-.03,1.11-.55,1.11-1.17-.01-1.44-.07-8.71-.2-10.72-.12-1.93-.23-10.23-.25-12.72,0-.46-.35-.84-.81-.89l-2.79-.31c-.29-.04-.56.09-.72.33-.16.24-.18.54-.05.8.59,1.14,1.5,3.43.97,5.99-.64,3.13-3.15,3.21-5.17,3.28l-.4.02c-1.63.07-9.42.21-11.97.29-.04-1.73-.2-9.04-.28-11.8-.08-2.8.1-14.38.14-16.7,2.74-.02,18.41-.06,21.38.46,3.15.55,6.06,5.32,6.51,6.7.39,1.18,1.49,5.16,1.95,6.81.12.42.4.77.78.97.38.2.83.23,1.24.08l1.28-.46c.53-.19.86-.7.83-1.26-.06-1.15-.26-4.02-.73-5.77-.47-1.74-1.2-7.31-1.5-9.63-.09-.7-.69-1.24-1.4-1.25-.77,0-1.89,0-2.85.08-.81.06-4.85-.07-8.76-.2-3.83-.13-7.45-.26-8.36-.2-1.61.1-24.88.44-29.52.51-.6.01-1.08.49-1.1,1.09l-.03,1.42c0,.3.11.59.32.8.21.21.49.33.79.33h0c1.95,0,4.54.25,4.55.25,2.61.41,2.96,2.55,3.2,4.07.19,1.18.5,14.49.61,19.49l.04,1.84c.03,1.08,0,5.68-.04,11.01-.04,5.72-.09,12.21-.07,16.14.03,6.75-1.47,11.48-4,12.65-1.8.83-5.14.39-6.49.16-.27-.05-.54.03-.74.21-.2.18-.31.44-.29.69v2.41c.02.57.49,1.04,1.06,1.04h0c4.9-.02,22.35-.18,32.13-.32,10.08-.14,26.84-.25,27.55-.26.61,0,1.12-.48,1.17-1.09.08-1.03.34-4.55.41-6.61.08-2.31.82-14.08.9-15.42.02-.32-.11-.61-.35-.82-.24-.21-.55-.3-.86-.23Z"/>
    <path class="cls-1" d="M279.56,2.72c-.75-.04-2.57-.02-4.88.02-2.19.03-4.79.07-7.14.05-2.44-.01-4.85,0-6.97.03-2.52.02-4.7.04-5.91-.01-.01,0-.03,0-.05,0-.57,0-1.06.45-1.09,1.06l.04,1.56c0,.36.16.71.42.95.22.21.51.32.79.3,2.84-.15,5.59-.02,7.02.34,2.09.52,3.53,1.94,4.27,4.2.49,1.51.96,17.65.96,20.85,0,2.64-.09,21.27-.11,26.28-2.25-2.98-7.87-10.42-8.77-11.5-1.05-1.26-16.14-19.7-17.91-21.92-1.67-2.1-8.5-11.66-10.24-14.1-1.38-1.94-3.89-5.24-5.27-7.03-.42-.55-1.08-.87-1.77-.87h-.04c-1.87.04-5.98.21-7.19.31-1.18.11-9.19-.02-12.58-.08h-.02c-.24,0-.47.09-.64.27-.17.17-.27.41-.27.66,0,.36-.03.91-.1,1.6-.03.32.08.64.32.86.24.22.56.32.88.28h0c.78-.12,2.3-.32,3.71-.32,1.93,0,3.85,1.22,4.55,2.9.5,1.2.57,4.82.66,9.01.04,1.72.07,3.55.14,5.39.24,6.39.69,37.14.49,40.74-.2,3.62-1.29,6.11-3.07,7-1.84.92-6.97,1.74-7.55,1.83-.41.06-.71.41-.71.82,0,.57-.06,1.48-.11,2.08-.02.28.08.55.27.76.19.2.46.32.74.32.11,0,11.15.04,14.8,0,3.02-.04,9.29-.14,11.59-.18h.21c.29,0,.56-.14.74-.36.19-.22.27-.51.22-.8l-.31-1.9c-.07-.46-.46-.79-.92-.81-4.21-.13-7.99-1.63-10.1-3.99-1.94-2.18-2.11-3.2-2.16-5.8-.02-1.13-.07-7.11-.13-14.04-.08-9.61-.16-20.51-.22-23.83-.08-4.76-.1-11.96-.1-14.16,2.23,2.24,8.54,10.73,12.16,15.79,3.59,5.01,16.93,21.84,23.39,29.85,5.67,7.04,13.66,17.9,15.21,20,.3.41.79.66,1.29.67l1.59.03h.02c.23,0,.44-.1.59-.27.16-.18.23-.41.2-.65-.06-.42-.15-1.31-.12-2.44.05-1.86.1-22.17,0-28.08-.1-5.99-.25-29.31-.05-32.01.02-.26.03-.52.05-.77.14-2.36.24-4.07,3.33-5.66,2.75-1.41,5.22-1.55,6.16-1.51.23.04.46-.09.61-.26.16-.17.24-.4.22-.63l-.15-1.87c-.05-.54-.49-.96-1.03-.99Z"/>
    <path class="cls-1" d="M377.1,4.6c-.03-.73-.64-1.31-1.37-1.31-.01,0-.03,0-.04,0-2.67.08-9.19.04-13.96,0-2.7-.01-4.92-.03-5.79-.02-.92.02-4.4-.02-8.44-.06-8.29-.08-18.61-.18-19.83-.04-1.58.19-16.62.04-19.62,0h-.01c-.36,0-.69.15-.93.42-.24.27-.35.63-.3.99.1.72.2,1.96.2,2.55,0,1.07.52,13.51.52,13.63,0,.24.12.47.3.63.18.16.42.25.66.22l1.61-.14c.57-.05,1.04-.5,1.1-1.07.11-.93.45-3.43,1.3-6.54.84-3.09,4.01-6.56,7.37-6.8,3.02-.21,13.17.09,16.2.18.08,0,.15.07.15.15.06.76.18,2.26.35,4.16.55,6.54,1.57,18.7,1.64,22.15.1,4.67-.14,25.65-.2,28.53-.05,2.71-.62,8.28-2.38,9.95-1.18,1.12-5.91,1.33-9.95,1.16-.27-.02-.58.1-.79.3-.21.2-.33.49-.33.79l.03,2.04c0,.44.36.79.79.79,1.17.02,7.15.12,10.16-.06,1.71-.1,4.39-.04,7.24.01,2.69.05,5.48.11,7.64.04,3.41-.11,8.19.13,10.08.23.03,0,.05,0,.08,0,.35,0,.69-.14.95-.38.28-.26.44-.63.44-1.01v-1.8c0-.3-.13-.6-.35-.81-.23-.21-.54-.33-.82-.31-4.47.22-7.49.08-8.98-.41-2.29-.75-3.07-5.56-3.16-7.99-.1-2.59.27-21.13.35-24.83.08-4.19-.39-26.13-.53-32.76,3.39-.3,15.39.23,18.51.59,2.09.24,4.53,3.54,6.71,9.06.54,1.37.56,3.15.55,3.85,0,.22.09.43.24.58.16.15.39.23.6.2l1.76-.16c.55-.05.96-.53.93-1.08-.2-3.17-.24-4.3-.24-4.69,0-.85-.32-8.19-.45-10.98Z"/>
    <path class="cls-1" d="M469.91,53.15l-1.87.3c-.37.06-.67.33-.75.7-.58,2.54-2.37,7.29-3.69,10.14-1.37,2.97-5.63,7.11-9.07,7.99-3.32.85-14.77,1.53-19.4.72-2.96-.52-4.55-2.48-4.73-5.82-.08-1.49-.68-19.67-.68-24.14,0-1.78.04-4.44.07-7.29.06-4.3.12-9.18.08-11.97-.01-.78-.06-1.68-.12-2.64-.28-5.07-.65-12,3.51-13.14,3.94-1.08,7.88-.87,8.99-.78.4.02.79-.15,1.03-.48.24-.33.28-.76.12-1.14l-.58-1.33c-.28-.63-.9-1.05-1.59-1.06-1.84-.03-11.28-.18-16.16.1-4.67.27-14.32-.03-17.17-.13-.73-.05-1.36.53-1.42,1.26l-.2,2.48c-.02.28.08.55.28.75s.47.28.75.28c1.3-.1,5.71-.4,7.62.04,1.94.45,3.12,1.88,3.96,4.79.45,1.57.15,9.97-.07,16.1-.13,3.52-.24,6.57-.21,8.03.08,4.33-.02,25.52-.1,28.58v.46c-.08,2.89-.14,5.39-2.66,6.58-1.74.82-4.48.79-6.29.53-.32-.05-.68.05-.94.28-.26.23-.4.55-.39.89l.04,1.58c.02.76.63,1.39,1.39,1.43,1.43.07,3.76.16,5.85.16.8,0,1.57-.01,2.24-.05,1.26-.06,4.44-.05,8.48-.04,6.37.02,15.1.05,21.64-.2,4.78-.18,9.82-.16,13.86-.14,3.57.01,6.4.03,7.75-.1.68-.06,1.18-.63,1.18-1.31-.02-2.23.02-9.2.09-10.77.07-1.64.35-8.14.45-10.5.01-.34-.12-.66-.37-.88s-.59-.32-.92-.27Z"/>
    <path class="cls-1" d="M560.65,55.33c-.03-.74-.64-1.33-1.38-1.34h-.78s-.01,0-.02,0c-1.22,0-2.2.95-2.25,2.17-.08,2.03-.6,5.94-3.16,9.33-3.84,5.08-8.43,6.68-10.83,7.18-2.71.57-15.72,1.97-18.83-.01-2.66-1.69-2.97-7.81-3.15-11.47-.04-.71-.07-1.35-.11-1.87-.26-3.11-.19-17.86-.25-19.47,1.38-.03,8.44-.13,12.13.45,3.8.6,4.3,1.66,4.98,3.13l.09.2c.4.84.61,2.93.57,5.57,0,.51.35.95.85,1.05l1.4.28c.39.08.78-.02,1.09-.27s.48-.62.47-1.02l-.16-23.52c0-.29-.12-.56-.33-.76-.21-.2-.5-.32-.78-.28l-1.96.11c-.22.01-.44.12-.58.29-.14.17-.21.4-.18.63.11.84.27,3.1-.68,5.88-1.03,3.03-6.11,3.33-8.55,3.47-.33.02-.61.04-.83.06-1.59.14-5.9.24-7.68.24.02-7.01.05-19.08-.04-21.15-.08-1.94.02-5.3.08-7.13,0-.17.14-.31.32-.32,3.28-.11,16.75.09,16.89.1,5.71,0,7.17,1.63,9.92,5.33,2.18,2.93,2.54,7.1,2.59,8.76.02.65.54,1.16,1.19,1.16h1.43c.42-.02.79-.22,1.06-.54s.39-.72.35-1.13l-1.58-16.19c-.08-.86-.8-1.51-1.66-1.51h-.01c-2.87.02-17.37.11-20.7.32-2.36.15-13.58.19-21.77.23-3.55.01-6.49.02-7.82.04-.65.01-1.17.52-1.19,1.17l-.03,1.13c.04.79.71,1.38,1.49,1.37,4.98-.12,6.9,1.32,7.26,2.2.38.9.43,8.86.46,13.61.01,1.53.02,2.88.03,3.84.02,1.32.1,3.85.19,6.99.21,7.25.5,17.17.48,23.15-.03,7.26-.24,13.88-2.51,15.15-1.81,1.01-6.41,1.49-7.78,1.61-.6.05-1.06.56-1.04,1.17l.04,1.84c.02.69.57,1.25,1.25,1.27.69.03,1.77.06,3.08.06,2.43,0,5.67-.1,8.8-.51,4.37-.58,15.99-.39,24.47-.26,3.17.05,5.9.08,7.55.09,4.52-.03,12.59-.01,16.18,0h0c.59,0,1.14-.23,1.56-.65.42-.42.65-.98.64-1.57-.02-3.24-.04-8.93.01-10.54.06-1.78-.15-6.95-.24-9.09Z"/>
  </g>
  <g>
    <path class="cls-1" d="M775.08,4.21c-4.51.05-5.6.05-5.6.05h-.44l.18,3.93.49-.12s2.75-.66,5.11.28c2.21.88,3.01,2.19,2.23,8.04-.6,4.47-2.74,11.86-4.15,16.76-.41,1.42-.76,2.64-1,3.52-1.02,3.8-5.78,19.77-7.32,24.57-.92-2.06-3.06-6.93-4.14-10.02-.39-1.11-1.06-2.98-1.86-5.2-2.14-5.97-5.07-14.14-6.15-17.69-1.5-4.93-8.08-22.74-8.52-23.89l-.1-.25-3.78-.2-.09.31c-.04.13-4,13.34-7.23,22.88-1.94,5.73-5.32,16.91-7.78,25.08-1.28,4.23-2.35,7.8-2.93,9.62-1.28-4.28-5.5-18.32-7.89-24.76-1.72-4.62-3.74-11.62-6.02-20.81l-.18-.73c-.41-1.63-1.04-4.09-.68-5.6.33-1.39,2.7-2.05,7.09-1.94h.47s-.04-.45-.04-.45c-.31-3.41-.36-3.44-.57-3.58l-.17-.11-.13.05c-1.11.03-18.66.15-27.96.21h-.43s.13,4.2.13,4.2l.47-.08s4.98-.79,7.68,2.75c1.83,2.4,4.81,9.35,6.72,17.49,1.27,5.43,5.62,19.27,9.12,30.39,1.83,5.84,3.41,10.87,4.01,13,1.6,5.69,2.1,6.58,2.21,6.71l.11.13,3.14.3.11-.31c.1-.29,9.81-28.72,10.87-31.72.92-2.63,6.53-20.73,7.99-25.47,1.85,4.7,9.06,23.12,10.6,28.62,1.78,6.36,9.39,25.95,10.76,28.86l.12.26,3.73-.26.08-.28c.1-.34,9.73-34.21,11.97-41.49,2.49-8.11,6.97-22.43,8-24.68,1.18-2.58,3.35-3.86,4.53-4.4,1.62-.73,3.37-.79,3.39-.8h.36s.37-3.36.37-3.36h-.47s-11.87.09-16.39.14Z"/>
    <path class="cls-1" d="M998.45,75.15c-.16-.11-.37-.16-.57-.11-1,.22-4.62.71-8.96-2.3-5.96-4.15-10.83-8.76-13.03-12.36-2.55-4.16-8.44-11.83-10.17-13.59-.53-.54-1.21-1.28-1.93-2.06-1.45-1.58-2.55-2.75-3.29-3.42,1.36-.28,3.9-.83,5.37-1.28,2.43-.74,5.8-2.31,8.12-5.56,2.4-3.36,4.09-7.09,4.52-9.95.4-2.64.51-6.56-.49-8.92-.6-1.42-2.9-6.33-7.16-9.57-3.95-3-10.53-3.91-16.39-4.53-5.93-.63-20.21.53-23.71.87-2.52.25-9.86.31-10.69.31-.38,0-.68.3-.7.62l-.47,2.56c0,.19.06.39.2.53.13.14.32.22.51.22h.01c3.09-.07,5.21-.02,5.83.14l1.11.28c.11.04,2.6.96,3.02,4.34.43,3.5.49,11.77.53,17.24v.85c.03,3.11-.16,8.89-.35,14.49-.14,4.22-.29,8.59-.33,11.65-.02,1.42,0,2.93.02,4.47.07,5.79.15,12.35-2.05,13.76-2.42,1.55-7.08,1.36-8.45,1.26-.22-.02-.44.06-.59.21-.16.15-.25.36-.25.63l.24,1.96c0,.44.36.79.79.79h34.85c.49,0,.88-.4.88-.88v-1.71c0-.25-.11-.49-.3-.66-.19-.17-.44-.23-.69-.22-1.34.17-4.8.46-8.03-.31-3.91-.94-3.96-7.69-3.98-10.58-.03-3.15-.03-21.11-.03-21.29l.08-.08c1.01.03,4.41.12,5.67.36,1.38.26,4.17,2.71,6.49,5.71,2.3,2.98,9.77,12.9,12.48,16.76.37.53.78,1.13,1.22,1.78,2.95,4.31,6.99,10.22,10.33,11.23,1.28.39,4.06.52,7.18.52,5.2,0,11.34-.36,13.08-.47.2-.01.39-.11.51-.27s.18-.36.15-.55l-.33-2.34c-.03-.2-.14-.37-.3-.49ZM941.76,24.11c-.08-3.59.09-16.49.12-18.65,2.73-.72,8.93-.23,11.53.02,4.37.42,8.24,2.5,10.9,5.84,3.16,3.96,3.54,9.6,2.91,13.23-.75,4.31-3.63,10.04-9.29,11.99-5.23,1.8-14.11,1.96-16.13,1.97,0-2.03.03-10.93-.04-14.4Z"/>
    <path class="cls-1" d="M1110.16,74.8c-1.07.05-4.77.12-7.73-1.62-3.56-2.09-10.87-9.6-15.24-14.08l-.3-.31c-1.17-1.2-2.54-2.64-4.01-4.18-4.12-4.32-9.24-9.69-12.63-12.67-3.83-3.36-7.07-6.38-7.97-7.21.35-.34,8.66-8.27,12.27-11.81,1.02-1,2.18-2.2,3.41-3.48,3.29-3.42,7.02-7.29,9.9-9.13,4.07-2.6,6.74-3.59,9.87-3.66.39,0,.71-.28.79-.65l.4-1.91c.05-.23,0-.47-.15-.66-.14-.19-.36-.31-.6-.32-1.17-.08-4.58-.25-10.91-.17-6.9.1-13.89-.03-15.86-.07-.44,0-.8.33-.84.76l-.14,1.83c-.03.43.28.81.7.88.65.09,2,.34,3.67.93,1.23.44,3.52,1.25,3.93,2.29.11.27.08.54-.08.86-.1.19-.19.37-.28.56-.78,1.6-1.59,3.25-6.86,8.59-2.95,2.99-5.54,5.52-7.82,7.76-2.28,2.22-4.07,3.98-5.36,5.35-2.11,2.24-7.52,6.56-9.11,7.83-.22-10.01-.31-16.64-.26-18.68.01-.64.01-1.42,0-2.28-.02-3.48-.04-9.31,1.46-10.37,1.79-1.26,8.48-2,9.3-2.05h.2s.12-.15.12-.15c.16-.19.18-.22-.45-3.27-.08-.38-.42-.66-.8-.66-1.91,0-11.76-.03-18.5.04-6.34.07-12,.11-13.56.12-.22,0-.43.09-.59.26-.15.16-.23.37-.23.6l.09,2.29c0,.23.11.45.29.59.18.15.4.21.63.19,1.04-.13,4.61-.39,6.94,1.53,2.9,2.39,3.07,10.91,3.17,16.55.06,2.91.07,8.04.08,13.48.02,6.41.03,13.03.12,17.16l.06,2.81c.13,5.69.19,8.28-.26,11.62-.48,3.59-4.44,5.17-6.82,5.33-1.75.12-3.38,0-4.2-.07-.23-.04-.47.06-.64.22-.17.16-.26.39-.25.63l.08,1.93c.02.44.38.79.82.79.01,0,.02,0,.03,0,1.91-.08,11.58-.47,14.45-.54,2.52-.08,11.41.19,16.72.35l2.77.08c.44.05.77-.28.83-.69l.31-1.9c.04-.23-.02-.46-.16-.64-.14-.18-.35-.29-.58-.31-.91-.07-3.28-.24-5.6-.24-2.79,0-4.48-1.45-5.04-4.31-.4-2.08-.54-9.61-.63-14.6-.04-2.43-.08-4.35-.13-5.14-.13-2.01-.02-4.35.03-5.26l5.19-4.34c1.29,1.2,7.88,7.31,10.4,10.18,1.68,1.91,5.9,6.13,9.62,9.86,2.66,2.66,5.18,5.18,6.54,6.62,2.27,2.4,2.23,4,2.11,4.57-.1.47-.34.77-.53.85-.79.34-2.67.73-3.93.89-1.06.13-4.95.27-6.12.3-.22,0-.43.1-.58.26-.15.17-.23.38-.22.6.16,3,.23,3.05.43,3.19l.11.13.19-.06c.47-.06,11.22-.6,15.61-.68,4.49-.09,17.92-.04,22.45.07.24.02.45-.09.61-.25.16-.16.24-.39.23-.62l-.11-1.95c-.03-.45-.44-.82-.87-.77Z"/>
    <path class="cls-1" d="M1181.19,41.88c-3.33-3.14-5.56-4.01-10.45-5.92-.88-.34-1.85-.72-2.92-1.15-8.78-3.51-14.25-6.49-16.7-9.09-2.76-2.93-4.3-6.09-4.44-9.15-.14-3.21,1.02-6.43,3.13-8.61,2.4-2.49,7.66-3.12,13.1-1.56,5.78,1.66,8.52,5.07,11.26,9.03,2.09,3.02,2.77,5.92,2.96,7.02.09.51.56.84,1.05.82l1.94-.14c.52-.04.92-.48.92-1v-.56c-.02-1.8-.04-5.34-.04-6.91,0-1.74.06-7.71.08-9.99v-.23c0-.29-.12-.57-.33-.76-.21-.2-.5-.29-.79-.26l-2.38.24c-.52.05-.92.49-.92,1.01,0,.87-.07,2.99-.79,3.99-.3.42-.53.5-.7.52-.84.14-2.36-.96-5.28-3.26-4.56-3.6-10.64-4.55-17.57-2.73-7.46,1.95-12.02,8.58-13.1,13.92-.97,4.8-.37,14.39,8.02,19.85,5.38,3.5,10.07,5.86,15.04,8.36,2.17,1.09,4.41,2.22,6.75,3.47,7.6,4.05,8.19,5.3,10.41,9.99,2.05,4.34-.15,8.25-2.84,11.83-2.27,3.02-6.4,6.88-15.87,5.56-9-1.25-11.65-5.29-14.21-9.19l-.41-.63c-2.23-3.36-3.88-10.94-4.34-13.19-.11-.52-.6-.87-1.13-.77l-1.94.33c-.45.08-.79.45-.82.91-.09,1.55-.36,6.91-.01,10.74.33,3.69.2,10.2.15,12.11,0,.34.13.66.37.9.24.23.57.36.91.34l2.15-.13c.6-.04,1.08-.5,1.13-1.1.04-.44.1-1.03.17-1.55.06-.44.7-1.73,1.71-3.44.06-.09.15-.11.18-.11.04,0,.13,0,.2.09.74.94,2.15,2.68,3.35,3.72,1.63,1.41,6.77,4.22,11.86,4.65,1.25.1,2.6.17,4,.17,5.11,0,10.92-.91,14.99-4.23,5.14-4.2,9.05-11.36,9.3-17.02.22-5.18-3.12-13.05-7.16-16.85Z"/>
    <path class="cls-1" d="M876.08,9.16c-9.45-7.65-27.05-7.64-27.73-7.66-.16-.02-14.26-.39-26.6,11.95-13.25,13.25-10.62,32.11-8.49,38.25,2.92,8.41,10.67,23,29.79,26.24,2.59.44,5.59.65,8.62.65,4.74,0,9.52-.52,12.8-1.49,5.69-1.69,9.83-4.73,15.47-9.76,9.77-8.71,12.05-25.07,10.51-33.38-1.23-6.65-4.06-16.47-14.38-24.81ZM875.72,57.89c-2.88,6.53-9.9,14.88-20.24,16.95-10.14,2.03-16.14-2.59-21.9-7.92-5.76-5.33-9.23-12.06-9.78-18.95-.53-6.67-1-23.26,6.16-33.21,7.07-9.84,19.85-10.17,19.97-10.17,7.53.02,13.91,2.44,19.51,7.39,5.39,4.76,6.52,10.95,7.51,16.4.18.97.35,1.91.54,2.82,1.28,6.12,1.23,19.88-1.78,26.7Z"/>
  </g>
  <g>
    <path class="cls-1" d="M618.33,40.45s.05-3.72,1.36-6.29c1.3-2.57,4.1-4.56,5.6-4.92,1.5-.36,4.5-1.27,7.69-.75,3.19.52,5.37,1.5,7.39,3.45,2.02,1.95,2.77,5.7,2.96,7,.2,1.3-.33,5.34-2.12,7.66-1.79,2.31-2.05,3.62-6.91,5.57-4.85,1.95-9.25-.26-10.39-1.21-1.14-.94-3.03-1.99-4.17-4.07-1.14-2.08-1.34-4.85-1.42-6.45Z"/>
    <path class="cls-1" d="M630.28,53.38c-3.23,0-5.77-1.39-6.62-2.09-.25-.2-.53-.41-.83-.64-1.11-.82-2.5-1.85-3.43-3.55-1.26-2.3-1.41-5.44-1.47-6.63v-.03c0-.16.07-3.84,1.4-6.47,1.4-2.77,4.32-4.76,5.88-5.14l.52-.13c1.64-.41,4.39-1.1,7.33-.63,3.36.55,5.57,1.58,7.62,3.57,2.17,2.1,2.91,6.07,3.09,7.24.22,1.46-.36,5.59-2.2,7.97-.29.37-.54.72-.77,1.05-1.24,1.73-2.13,2.97-6.31,4.65-1.47.59-2.89.82-4.2.82ZM618.75,40.44c.06,1.14.2,4.13,1.37,6.25.84,1.54,2.15,2.51,3.2,3.28.32.23.61.45.87.67.88.73,5.17,3.08,9.97,1.14,3.95-1.59,4.74-2.69,5.94-4.37.24-.33.5-.69.79-1.07,1.73-2.24,2.21-6.16,2.04-7.34-.12-.78-.81-4.8-2.84-6.77-1.91-1.85-3.99-2.82-7.17-3.34-2.77-.46-5.42.21-6.99.61l-.53.13c-1.4.33-4.11,2.29-5.33,4.7-1.21,2.38-1.31,5.86-1.31,6.1Z"/>
  </g>
</svg>