<?xml version="1.0" encoding="UTF-8"?>
<svg id="Layer_2" data-name="Layer 2" xmlns="http://www.w3.org/2000/svg" viewBox="0 0 198.12 13.14">
  <defs>
    <style>
      .cls-1 {
        fill: #7b6f47;
      }
    </style>
  </defs>
  <g id="guides_mobile" data-name="guides mobile">
    <g>
      <path class="cls-1" d="M198.12,9.14v.72c-.25,1.04-.79,1.99-1.67,2.65-.42.32-.91.45-1.42.55-.06.01-.12.03-.12.08h-.08c-.06-.07-.22-.07-.28,0h-1c-.77-.1-1.5-.33-2.13-.8-.23-.2-.39-.41-.6-.66-.14.21-.27.41-.32.65-.02.12,0,.29-.12.35-.02.01-.68.2-.67-.15,0-.64.03-1.27-.02-1.91s-.05-1.33.01-2c.2-.07.59-.22.65.03.28,1.23.41,1.88,1.22,2.87.63.77,1.77,1.03,2.72.99,1.18-.04,1.85-.72,2.34-1.72.23-.48.15-.95-.07-1.4s-.5-.81-.95-1.07c-1.41-.84-2.73-1.35-4.2-2.27-.56-.35-1.01-.8-1.27-1.42s-.36-1.32-.21-2.01c.21-.94.85-1.74,1.73-2.14.64-.29,1.33-.36,2.01-.28,1.1.12,1.47.75,2.11,1.08.13.07.25,0,.3-.12.18-.43-.02-.74.26-.77.13-.01.26-.03.39-.04s.2.09.19.22l-.02,2.95c0,.18-.56.18-.63.1-.12-.55-.35-1.05-.7-1.5-.27-.34-.53-.67-.91-.9-.65-.4-1.41-.57-2.17-.47-.29.04-.58.14-.78.35-.52.53-.69,1.32-.43,2.02.25.65.72,1.14,1.32,1.49.6.35,1.2.63,1.85.88l1.29.51c1.42.56,2.07,1.74,2.39,3.14Z"/>
      <path class="cls-1" d="M194.83,13.14h-.28c.06-.07.22-.07.28,0Z"/>
      <path class="cls-1" d="M175.01,11.82c.26.7.94.45,1.69.55.26.04.13.41.05.6l-3.06-.07-2.8.08c-.06-.17-.08-.35-.03-.51.06-.2.64.07,1.27-.18.31-.12.6-.34.67-.68.08-.41.09-.81.08-1.24l-.05-4.5-.04-2.79c0-.48-.07-.93-.22-1.38-.1-.31-.3-.53-.61-.64-.62-.2-.98.06-.99-.25,0-.13-.06-.49.12-.49l5.46-.03c.09.23.13.44.13.67-.49.06-.95.11-1.41.26-.19.06-.31.18-.35.38-.06.3-.09.59-.09.9l.04,4.01c.49-.38.95-.73,1.37-1.16l1.15-1.14c.58-.58,1.16-1.12,1.71-1.72.28-.3.51-.61.67-.98s-1.09-.64-1.34-.69c-.07-.18-.04-.39.04-.56l2.15.02c.81,0,1.6-.03,2.4.02.25.02.09.44.03.59-.78-.03-1.84.59-2.36,1.12l-1.22,1.22-2.42,2.35,1.47,1.33c.51.46.95.93,1.43,1.42l2.27,2.33c.37.38.75.71,1.15,1.05.43.36.93.55,1.51.54.07,0,.23-.02.27.04.08.17.08.38,0,.56h-3.45s-3.07.1-3.07.1c-.05-.3-.18-.68.14-.7.39-.02,1.32-.02,1.63-.22.12-.08.07-.31.02-.42-.1-.24-.27-.41-.45-.6l-2.54-2.58c-.58-.59-1.13-1.14-1.74-1.7l-.86.72c-.04.37-.01.71,0,1.08l.07,2.61c0,.23.02.45.1.67Z"/>
      <path class="cls-1" d="M156.92,6.96v3.8c0,.37.06.73.19,1.06.11.27.32.44.61.48.39.06.77.07,1.16.03.07,0,.14,0,.18.05.05.06.08.43-.03.53h-6c-.07-.17-.1-.35-.07-.52.04-.23,1.55.2,1.76-.64.09-.35.12-.71.12-1.09l.07-4c.03-1.66.07-3.27-.04-4.91-.03-.49-.37-.84-.84-.84h-.84c-.22-.01-.03-.52,0-.65l1.55-.05,2.53-.17c1.11-.08,2.42.01,3.49.3.53.14,1,.38,1.37.8s.7.85.85,1.37c.27.94.01,1.89-.47,2.7-.63,1.05-1.32,1.23-2.46,1.49l.93.99c.71.76,1.22,1.62,1.83,2.45.58.79,1.38,1.39,2.19,1.91.4.26.87.3,1.34.25.12.17.14.41.09.63-1.02.07-2.02.11-3.03.07-.33-.01-.61-.1-.86-.32-.29-.25-.53-.53-.75-.84l-.75-1.06-2.23-2.96c-.23-.31-.53-.61-.88-.76-.31-.13-.66-.05-1.02-.09ZM159.19,5.99c.63-.13,1.12-.43,1.48-.95.62-.91.71-2.14.15-3.11-.44-.77-1.27-1.18-2.14-1.23-.6-.04-1.16-.09-1.77,0l-.02,3.07v2.43c.79-.02,1.52-.06,2.29-.22Z"/>
      <path class="cls-1" d="M128.02.5l3.81-.03c.01.2-.03.38-.05.57-.74.01-1.28.47-1.5,1.16l-1.34,4.22-1.89,6.55c-.22.05-.41.05-.65.05l-1.7-4.49c-.15-.55-.31-1.04-.51-1.57l-1.36-3.53-1.24,3.9-1.93,5.63c-.2.01-.38-.01-.57-.06-.18-.42-.27-.84-.41-1.28l-1.37-4.39c-.27-.86-.52-1.67-.74-2.54s-.46-1.73-.86-2.54c-.12-.24-.23-.48-.43-.66-.32-.3-.76-.37-1.22-.31-.04-.23-.03-.46-.03-.7l4.82-.04c.06.24.07.45.08.69-.28,0-1.15-.02-1.24.3-.06.19-.03.41.02.61l.56,2.19c.19.75.46,1.42.7,2.15l1.14,3.58s.05.04.07,0l1.54-4.99,1.43-4.51c.24,0,.42,0,.65.04l1.43,4,1.12,3.21c.27.77.53,1.49.91,2.25l1.87-6.42c.17-.58.25-1.14.25-1.72,0-.31-.15-.54-.43-.63-.3-.1-.59-.1-.92-.03-.03-.22-.03-.4-.03-.66Z"/>
      <path class="cls-1" d="M146.37,11.19c-1,.83-1.78,1.44-3.15,1.61-2.5.32-4.95-.12-6.59-2.17-1.37-1.71-1.82-3.67-1.34-5.81.28-1.26.95-2.33,1.93-3.16,1.07-.91,2.38-1.52,3.8-1.61,1.3-.08,3.41.28,4.54,1,1.34.92,2.25,2.27,2.64,3.84.17.67.23,1.31.17,2.01-.15,1.64-.72,3.22-2,4.3ZM144.16,11.5c.73-.53,1.3-1.23,1.67-2.04.47-1.03.51-2.99.36-4.12-.08-.57-.19-1.09-.32-1.64s-.35-1.11-.74-1.55c-.92-1.05-2.24-1.61-3.63-1.59-1.56.13-2.96.85-3.66,2.3s-.81,3.58-.64,5.23c.26,1.58,1.32,2.78,2.6,3.66,1.36.94,3.08.69,4.35-.24Z"/>
      <path class="cls-1" d="M34.31,11.8c.58-.13.74-.81.74-1.31,0-2.93-.04-5.84-.15-8.77-.01-.4-.23-.7-.61-.8-.41-.11-.88.11-.99-.03-.07-.09-.06-.51.05-.55h1.97s1.32-.05,1.32-.05c.17,0,.31.03.42.17l.84,1.12,1.69,2.32,3.09,3.79,1.37,1.76c.07-.88.03-1.66.04-2.49.03-1.7,0-3.37-.12-5.06-.04-.5-.4-.87-.87-.93-.34-.04-.66-.05-1.01-.03-.09,0-.19-.03-.21-.11-.04-.12-.04-.25-.03-.39.01-.11.09-.16.21-.16l4.08-.03c.08,0,.15.04.19.07.07.07.12.54-.01.55-.45.04-.88.12-1.26.38-.23.15-.34.38-.36.66-.04.63-.04,1.24-.03,1.88l.02,3.74v5.2c-.14.06-.45.13-.57-.02l-2.43-3.18-3.9-4.95c-.74-.94-1.37-1.92-2.19-2.84l.08,8.77c0,.82.87,1.36,1.49,1.45l.66.09c.06.14.22.62-.06.62l-4.41.04c-.08,0-.14-.02-.17-.06-.07-.09-.05-.54.03-.59l1.1-.25Z"/>
      <path class="cls-1" d="M87.37,12.02c.96.07,1.91.04,2.84-.16.83-.18,1.5-.77,1.9-1.48.52-.91.07-1.61.77-1.6.17,0,.3.09.31.28l.04,1.44v1.8c0,.19-.15.36-.35.36h-2.61s-3.25-.03-3.25-.03c-.68,0-1.32-.01-2,.05-.77.07-1.54.16-2.31.07-.18-.05-.14-.54-.1-.61.04-.06.12-.09.2-.09.36-.03.72-.08,1.07-.18.2-.06.33-.18.39-.37.24-.71.21-2.4.19-3.23l-.11-4.36-.05-2.39c0-.17-.08-.3-.24-.38-.58-.29-1.02-.06-1.2-.26-.09-.1-.08-.36,0-.46.04-.06.12-.08.21-.08h2.45s3.17-.06,3.17-.06l2.73-.03c.14,0,.28.1.29.25l.26,2.77c.02.26-.46.28-.6.19-.22-.15.11-.92-.74-1.92-.3-.35-.66-.57-1.15-.58l-2.83-.03c-.11,0-.2,0-.31.04-.01.28-.02.54-.02.82v3.89c.67-.03,2.41.08,2.79-.48.25-.38.15-1.14.23-1.23.05-.05.54-.12.58.03l.05,4.02c0,.1-.07.16-.12.19-.1.06-.41,0-.48-.08-.14-.13.12-1.2-.5-1.47-.57-.25-1.84-.21-2.51-.2v1.73c.02.84.03,1.65.11,2.49.03.3.08.58.19.86s.34.47.69.5Z"/>
      <path class="cls-1" d="M9.36,10.9c.16-.7.46-2.55-.45-2.84-.4-.13-.81-.12-1.24-.17-.07-.19-.04-.43.04-.62l1.79-.05c.61-.02,1.19-.06,1.8-.05.57,0,1.12,0,1.69-.03.09,0,.16.06.19.14.26.91-.06.27-1.17.69-.23.09-.4.28-.42.55-.09,1.09-.07,2.18.12,3.27.02.1.02.37-.15.31-.27-.09-.52-.16-.83-.08-.51.14-1.05.2-1.55.42-1.03.46-2.13.68-3.26.57-.52-.05-1.02-.12-1.51-.3-.58-.2-1.12-.41-1.66-.7-.99-.53-1.75-1.33-2.16-2.38C.16,8.48-.07,7.28.02,6.05c.08-1.13.42-2.24,1.05-3.19.53-.8,1.25-1.46,2.06-1.97C4.52.03,6.93-.14,8.49.47c.71.28,1.31.72,1.91,1.22.15-.28.16-1.07.26-1.15.07-.05.5-.09.57,0,.1.66.14,1.31.13,1.99l-.03,1.94c-.09.13-.45.14-.53.03-.17-.37-.18-.76-.33-1.13-.18-.48-.61-1.28-1.03-1.58-.61-.44-1.27-.76-2-.96s-1.49-.2-2.22.04c-.55.18-1.07.41-1.55.73-.79.54-1.16,2.13-1.29,3.04-.16,1.1-.2,2.18-.12,3.28.07.94.34,1.83.8,2.64s1.45,1.48,2.35,1.67c1.25.26,2.31.26,3.38-.48.3-.21.49-.49.57-.85Z"/>
      <path class="cls-1" d="M23.52,6.34h-1.97s.08,4.11.08,4.11c.01.57.09,1.35.74,1.43.87.11,1.76.14,2.63.03.77-.1,1.38-.52,1.78-1.15s.65-1.3.82-2.02c.04-.17.66-.31.72-.11l-.21,3.7c0,.11-.07.23-.19.23l-3.47.03-6.47.07c-.15,0-.23-.06-.23-.2v-.36c0-.48,1.19.35,1.63-.6.18-.39.28-.82.28-1.28l.03-3.25c.01-1.78-.02-3.53-.11-5.29-.01-.27-.18-.53-.41-.6-.39-.11-.9-.01-1.02-.13-.1-.1-.07-.55.08-.55l5.36-.09,2.41.06c.32,0,.76-.14.81.21.07.48.12.95.22,1.43.08.4.17.8.14,1.21-.01.12-.37.25-.51.21-.09-.02-.15-.09-.18-.19l-.33-1.12c-.11-.37-.39-.67-.68-.92-.2-.16-.41-.22-.67-.23l-3.29-.04c-.05,1.6-.03,3.14.02,4.74l2.27-.06c.35,0,.62-.22.66-.57.13-.46-.22-.94-.16-1.09.02-.04.07-.07.14-.06.29.03.6,0,.6.22l.05,2.44.02,1.36c0,.09,0,.18-.06.22-.08.08-.38.1-.46.04-.16-.12.05-.52-.16-1.17-.13-.41-.46-.65-.9-.65Z"/>
      <path class="cls-1" d="M59.97,12.14c.03.18.05.59-.23.57-.71-.04-1.41-.03-2.13-.04l-1.77-.02c-.7,0-1.38.05-2.08,0-.07-.18-.07-.37-.03-.55.02-.09.14-.1.22-.09.44.02.87.01,1.29-.06.25-.04.41-.19.5-.44.16-.47.21-.95.21-1.46l.04-3.79c0-.58,0-1.11-.05-1.69l-.29-3.57c-.96,0-1.88-.1-2.81,0-.54.05-.9.55-1.11,1-.12.42-.19.8-.26,1.23-.03.21-.48.17-.51.16-.08-.03-.1-.11-.1-.2l-.11-2.56c0-.1-.01-.18.06-.24.05-.05.13-.05.23-.05h2.49s3.05,0,3.05,0l3.85.03h1.85c.11,0,.23.09.23.2l.12,2.73c-.17.13-.38.12-.56.07-.07-.18-.02-.37-.08-.56-.14-.46-.35-.86-.61-1.27-.14-.12-.26-.37-.48-.4-1.04-.13-2.09-.14-3.16-.13l.08,5.38-.06,4.11c0,.41.07.8.24,1.15.09.19.25.29.45.32.44.06.86.06,1.3.03.11,0,.21.05.23.16Z"/>
      <path class="cls-1" d="M78.15,12.37c0,.16-.12.25-.28.25h-2.64s-2.25.06-2.25.06h-3.49c-.55,0-1.08.04-1.61-.03-.24-.03-.19-.55-.14-.61.13-.17.47.03,1.07-.11.34-.08.56-.35.58-.71.05-.71.04-1.4.04-2.12l.02-3.85.07-2.92c.01-.5-.22-1.17-.81-1.23-.38-.04-.76-.02-1.14.01-.12,0-.2-.07-.19-.19l.03-.4c.01-.17.14-.22.29-.22.86.03,1.69.05,2.55.03,1.03-.03,2.02-.06,3.04,0,.17,0,.35.42.29.55-.03.08-.11.12-.21.12-.49-.04-.98,0-1.46.12-.86.21-.6,1.82-.6,2.45v2.96c-.02,1.56.03,3.07.12,4.62.02.43.37.74.76.8.6.08,1.18.08,1.78.04.51-.04,1.03-.02,1.52-.19.59-.2,1.1-.68,1.4-1.23.32-.59.49-1.2.69-1.83.15-.08.34-.11.51-.09.08.01.13.11.12.2-.06,1.18-.11,2.33-.09,3.52Z"/>
      <path class="cls-1" d="M106.62,7.75c-.74.99-2.13,1.3-3.1.45-.22-.19-.45-.35-.56-.64-.45-1.11-.17-2.63,1.07-2.99.71-.21,1.42-.18,2.06.14.42.21.68.54.85.97.28.72.14,1.46-.32,2.07Z"/>
    </g>
  </g>
</svg>