<?xml version="1.0" encoding="UTF-8"?>
<svg id="guides_mobile" data-name="guides mobile" xmlns="http://www.w3.org/2000/svg" viewBox="14 14 26 27">
  <defs>
    <style>
      .cls-1 {
        fill: #7b6f47;
      }
    </style>
  </defs>
  <path class="cls-1" d="M30.33,39.84h-6.34s-1.96-.03-1.96-.03l-1.04-.05-.55-.03c-.21-.01-.42-.04-.62-.07-.85-.13-1.66-.34-2.41-.79-1.61-.97-2.35-2.56-2.53-4.4l-.04-.42c-.02-.21-.02-.41-.04-.63l-.04-.8-.04-1.57v-7.28s.04-1.6.04-1.6l.04-1.05c0-.22.04-.46.07-.67.08-.65.19-1.25.4-1.86.52-1.44,1.61-2.54,3.06-3.06.73-.26,1.8-.44,2.58-.47l.97-.04,1.64-.05h7.37s1.52.05,1.52.05l1.12.05c.8.04,1.55.17,2.31.41,1.58.51,2.78,1.72,3.27,3.3.25.81.37,1.67.41,2.51l.05,1.01.04,2.12v6.37s-.04,1.7-.04,1.7l-.04,1.05c-.04.9-.2,1.94-.51,2.78s-.8,1.49-1.47,2.07c-.95.81-2.27,1.21-3.51,1.31l-.72.06-1.16.06-1.82.03ZM36.99,19.93c.27-.7.05-1.46-.46-1.96s-1.29-.66-1.97-.38c-.81.33-1.26,1.15-1.13,2s.79,1.46,1.63,1.55,1.63-.38,1.94-1.22ZM30.51,34.49c2.96-1.43,4.71-4.52,4.43-7.77-.33-3.81-3.4-6.83-7.21-7.11-.39-.03-.77-.03-1.16,0-3.88.27-6.97,3.4-7.23,7.26-.14,2.02.47,3.97,1.77,5.53s3.23,2.61,5.3,2.8c.48.04.96.03,1.44,0,.85-.05,1.9-.34,2.66-.71Z"/>
  <path class="cls-1" d="M29.61,31.8c-2.39,1.33-5.32.53-6.75-1.77-.55-.88-.78-1.84-.74-2.87.1-2.56,2.15-4.64,4.71-4.79,1-.06,1.91.14,2.79.62,1.51.83,2.49,2.39,2.58,4.12.11,1.95-.88,3.74-2.58,4.69Z"/>
</svg>