<?xml version="1.0" encoding="UTF-8"?>
<svg id="guides_mobile" data-name="guides mobile" xmlns="http://www.w3.org/2000/svg" viewBox="14 15 25 25">
  <defs>
    <style>
      .cls-1 {
        fill: #7b6f47;
      }
    </style>
  </defs>
  <path class="cls-1" d="M37.37,15.56c.79.15,1.34.71,1.49,1.49v20.84c-.24.92-.89,1.33-1.77,1.54h-20.84c-.84-.26-1.03-.6-1.26-1.4v-20.98c.17-.79.75-1.32,1.54-1.49h20.84ZM19.88,18.56c-1.21.13-2.02,1.21-1.89,2.36s1.18,1.99,2.33,1.86c1.16-.12,2.02-1.17,1.89-2.35-.13-1.13-1.13-2-2.33-1.87ZM29.79,27.49c.86-.07,1.56.33,1.91,1.11.23.51.32,1.04.34,1.61v5.81s3.41,0,3.41,0v-6.84c-.05-.8-.12-1.54-.37-2.28-.71-2.18-2.85-2.55-4.87-2.32-1.16.21-2.23.71-2.91,1.72v-1.65s-3.22,0-3.22,0v11.37s3.41,0,3.41,0v-5.58c.05-1.51.6-2.81,2.3-2.94ZM21.8,36.01v-11.36s-3.41,0-3.41,0v11.37s3.41-.01,3.41-.01Z"/>
</svg>